<svg width="463" height="403" viewBox="0 0 463 403" fill="none" xmlns="http://www.w3.org/2000/svg">
<path d="M463 215.5C463 318.777 329.443 373.366 210.724 402.5C84.0984 402.5 0 290.277 0 187C64.5534 69.7863 117.233 25.7464 210.724 0C337.35 0 463 112.223 463 215.5Z" fill="#FFF621"/>
<path d="M463 215.5C463 318.777 329.443 373.366 210.724 402.5C84.0984 402.5 0 290.277 0 187C64.5534 69.7863 117.233 25.7464 210.724 0C337.35 0 463 112.223 463 215.5Z" stroke="black"/>
<path d="M123.5 168.5C110.139 218.012 109.407 245.862 119.5 295.5" stroke="#02F8E9" stroke-width="7"/>
<path d="M340.5 168C353.804 210.049 352.966 238.337 340.5 295" stroke="#02F8E9" stroke-width="7"/>
<path d="M118.5 171C118.5 171 144.343 153.593 166.013 139.572C187.682 125.551 211.303 116.417 239.387 105.724" stroke="#02F8E9" stroke-width="7"/>
<path d="M239.267 105.577C239.267 105.577 279 116.5 299 134.5C319 152.5 346.5 173 346.5 173" stroke="#02F8E9" stroke-width="7"/>
<path d="M117 291.5C211.391 307.564 260.472 305.04 345 291.5" stroke="#02F8E9" stroke-width="7"/>
<path d="M200.5 231C198.188 264.209 198.376 279.55 200.5 303" stroke="#02F8E9" stroke-width="7"/>
<path d="M261 232C266.281 256.874 265.203 273.922 261 304" stroke="#02F8E9" stroke-width="7"/>
<path d="M200 233.114L266 231" stroke="#02F8E9" stroke-width="7"/>
<path d="M265.123 240.612C303.104 242.217 321.978 237.913 350.123 218.612" stroke="#02F8E9" stroke-width="7"/>
<path d="M203.606 241.384C154.205 242.782 160.113 240.909 106 224" stroke="#02F8E9" stroke-width="7"/>
<path d="M264 270C307.122 268.319 326.016 263.171 351 247" stroke="#02F8E9" stroke-width="7"/>
<path d="M198.745 271.491C164.898 277.976 139.697 269.534 109.5 258.5" stroke="#02F8E9" stroke-width="7"/>
<path d="M178 132.5C226.349 154.376 251.576 151.129 295 132.5" stroke="#02F8E9" stroke-width="7"/>
<line x1="202.5" y1="82" x2="202.5" y2="122" stroke="#02F8E9" stroke-width="7"/>
<path d="M119 172.5C208.744 213.083 244.415 217.788 339.5 172.5" stroke="#02F8E9" stroke-width="7"/>
</svg>
