<svg width="830" height="130" viewBox="0 0 830 130" fill="none" xmlns="http://www.w3.org/2000/svg">
<path d="M21.1016 113.773C20.4505 115.857 19.3438 117.419 17.7812 118.461C16.349 119.503 14.9167 120.023 13.4844 120.023C11.2708 120.023 9.38281 119.372 7.82031 118.07C6.25781 116.638 5.34635 114.62 5.08594 112.016C5.47656 108.37 5.67188 104.724 5.67188 101.078C5.67188 92.875 4.89062 84.6719 3.32812 76.4688C1.89583 68.2656 0.919271 59.8021 0.398438 51.0781V45.4141C0.398438 43.4609 0.463542 41.2474 0.59375 38.7734C0.723958 36.2995 0.919271 33.8906 1.17969 31.5469C1.4401 29.2031 1.70052 27.0547 1.96094 25.1016C2.35156 23.0182 2.74219 21.3906 3.13281 20.2188L3.71875 18.2656C3.71875 17.4844 3.97917 16.7682 4.5 16.1172C5.15104 15.3359 5.86719 14.6849 6.64844 14.1641C7.5599 13.6432 8.47135 13.2526 9.38281 12.9922C10.2943 12.6016 11.0755 12.4062 11.7266 12.4062C13.5495 12.4062 15.3073 13.0573 17 14.3594C22.0781 18.526 27.2214 23.0833 32.4297 28.0312C37.7682 32.849 42.7812 37.7969 47.4688 42.875C52.2865 47.9531 56.7135 53.0312 60.75 58.1094C64.7865 63.1875 68.0417 67.875 70.5156 72.1719L71.6875 59.4766C72.3385 53.8776 72.7943 48.0833 73.0547 42.0938C73.4453 36.1042 73.7057 29.9193 73.8359 23.5391C73.5755 22.4974 73.4453 21.5859 73.4453 20.8047C73.4453 18.2005 74.1615 16.1823 75.5938 14.75C77.026 13.3177 78.849 12.6016 81.0625 12.6016C82.8854 12.6016 84.3828 12.9271 85.5547 13.5781C86.8568 14.2292 87.8333 15.0755 88.4844 16.1172C89.2656 17.1589 89.7865 18.3307 90.0469 19.6328C90.3073 20.8047 90.4375 21.9766 90.4375 23.1484C90.4375 25.2318 90.2422 27.3151 89.8516 29.3984C89.5911 31.3516 89.4609 33.1745 89.4609 34.8672C88.6797 45.8047 87.8333 56.5469 86.9219 67.0938C86.0104 77.5104 85.5547 88.1875 85.5547 99.125C85.4245 101.599 84.6432 103.682 83.2109 105.375C81.9089 107.068 79.9557 107.914 77.3516 107.914C75.9193 107.914 74.5521 107.458 73.25 106.547C72.0781 105.635 70.9714 104.594 69.9297 103.422C68.888 102.25 67.9766 101.078 67.1953 99.9062C66.5443 98.7344 66.0885 97.888 65.8281 97.3672L62.5078 90.1406C56.388 79.0729 49.3568 68.9167 41.4141 59.6719C33.6016 50.2969 25.3984 41.9635 16.8047 34.6719C16.5443 36.4948 16.2839 38.3828 16.0234 40.3359C15.8932 42.1589 15.8281 43.9818 15.8281 45.8047C15.8281 50.7526 16.0885 55.7005 16.6094 60.6484C17.2604 65.5964 17.9115 70.5443 18.5625 75.4922C19.2135 80.3099 19.7995 85.1927 20.3203 90.1406C20.9714 95.0885 21.2969 100.102 21.2969 105.18C21.2969 106.612 21.2969 108.044 21.2969 109.477C21.2969 110.909 21.2318 112.341 21.1016 113.773ZM173.836 10.8438C175.008 13.0573 175.594 15.1406 175.594 17.0938C175.594 18.9167 174.812 20.5443 173.25 21.9766C171.818 23.2786 169.93 23.9297 167.586 23.9297C166.023 23.9297 164.591 23.6042 163.289 22.9531C158.211 18.6562 152.677 16.5078 146.688 16.5078C139.917 16.5078 134.188 19.2422 129.5 24.7109C129.37 25.2318 129.174 25.8177 128.914 26.4688C128.784 27.1198 128.589 27.7057 128.328 28.2266C128.328 33.6953 129.76 38.2526 132.625 41.8984C135.49 45.4141 139.07 48.6042 143.367 51.4688C147.664 54.2031 152.286 56.8073 157.234 59.2812C162.182 61.7552 166.805 64.6198 171.102 67.875C175.398 71.1302 178.979 75.1016 181.844 79.7891C184.708 84.3464 186.141 90.0755 186.141 96.9766C186.141 102.706 184.773 107.523 182.039 111.43C179.435 115.336 176.115 118.526 172.078 121C168.042 123.344 163.745 125.036 159.188 126.078C154.63 127.25 150.398 127.836 146.492 127.836C139.721 127.836 133.081 126.404 126.57 123.539C120.06 120.805 114.396 116.638 109.578 111.039C108.536 109.607 107.495 107.784 106.453 105.57C105.411 103.357 104.891 101.208 104.891 99.125C104.891 96.9115 105.542 95.0234 106.844 93.4609C108.276 91.7682 110.294 90.9219 112.898 90.9219C115.372 90.9219 117.326 92.0286 118.758 94.2422C120.32 96.3255 121.688 98.9297 122.859 102.055C126.245 105.44 129.891 107.979 133.797 109.672C137.703 111.234 141.74 112.016 145.906 112.016C147.469 112.016 149.422 111.885 151.766 111.625C154.109 111.234 156.388 110.648 158.602 109.867C160.945 109.086 163.029 108.109 164.852 106.938C166.805 105.635 168.172 104.073 168.953 102.25C169.214 101.208 169.409 100.362 169.539 99.7109C169.799 98.9297 170.06 98.2135 170.32 97.5625C169.539 93.1354 167.911 89.2943 165.438 86.0391C163.094 82.7839 160.294 79.9193 157.039 77.4453C153.784 74.9714 150.333 72.8229 146.688 71C143.172 69.1771 139.917 67.4193 136.922 65.7266C131.583 62.7318 126.766 59.151 122.469 54.9844C118.172 50.6875 114.917 44.5026 112.703 36.4297C112.052 34.0859 111.727 31.8724 111.727 29.7891C111.727 25.362 112.833 21.3255 115.047 17.6797C117.26 14.0339 120.125 10.974 123.641 8.5C127.156 5.89583 131.128 3.8776 135.555 2.44531C139.982 1.01302 144.474 0.296875 149.031 0.296875C154.37 0.296875 158.992 1.27344 162.898 3.22656C166.805 5.04948 170.451 7.58854 173.836 10.8438ZM307.625 27.0547C307.234 40.987 307.039 55.375 307.039 70.2188V115.922C307.039 118.266 306.193 120.154 304.5 121.586C302.938 123.018 301.245 123.734 299.422 123.734C297.599 123.734 295.776 123.083 293.953 121.781C292.26 120.609 291.284 118.526 291.023 115.531V70.6094C291.023 56.1562 291.219 42.1589 291.609 28.6172C285.359 29.2682 279.76 29.8542 274.812 30.375C269.865 30.7656 265.503 31.2214 261.727 31.7422C259.122 31.4818 257.104 30.5703 255.672 29.0078C254.37 27.4453 253.719 25.5573 253.719 23.3438C253.719 20.8698 254.891 18.9818 257.234 17.6797C259.578 16.3776 262.703 15.401 266.609 14.75C270.516 13.9688 275.008 13.4479 280.086 13.1875C285.294 12.9271 290.763 12.5365 296.492 12.0156C304.435 11.3646 311.466 10.8438 317.586 10.4531C323.706 10.0625 328.979 9.86719 333.406 9.86719C338.094 11.5599 340.438 14.1641 340.438 17.6797C340.047 20.4141 338.875 22.3672 336.922 23.5391C335.099 24.7109 332.69 25.4922 329.695 25.8828C326.831 26.2734 323.51 26.4688 319.734 26.4688C315.958 26.4688 311.922 26.6641 307.625 27.0547ZM372.859 121.977C372.859 124.19 372.013 126.013 370.32 127.445C368.758 128.878 367.065 129.594 365.242 129.594C363.419 129.594 361.596 128.943 359.773 127.641C358.081 126.469 357.104 124.516 356.844 121.781C356.844 113.057 356.909 104.398 357.039 95.8047C357.299 87.2109 357.43 78.5521 357.43 69.8281C357.43 67.3542 357.234 63.4479 356.844 58.1094C356.583 52.6406 356.453 46.9766 356.453 41.1172C356.453 34.8672 356.648 28.7474 357.039 22.7578C357.56 16.7682 358.732 11.5599 360.555 7.13281L361.727 5.17969L363.875 3.42188C367.391 2.11979 371.036 1.46875 374.812 1.46875C380.151 1.46875 385.88 2.05469 392 3.22656C398.12 4.26823 403.784 6.15625 408.992 8.89062C414.201 11.625 418.497 15.3359 421.883 20.0234C425.398 24.5807 427.156 30.4401 427.156 37.6016C427.156 40.987 426.635 44.112 425.594 46.9766C424.682 49.8411 423.445 52.4453 421.883 54.7891C420.451 57.1328 418.758 59.2161 416.805 61.0391C414.982 62.862 413.159 64.3594 411.336 65.5312C407.56 68.0052 403.393 69.9583 398.836 71.3906C394.279 72.6927 389.526 74.1901 384.578 75.8828L382.234 76.6641C381.974 76.5339 381.844 76.4688 381.844 76.4688C384.969 78.6823 387.898 81.026 390.633 83.5C393.497 85.8438 396.362 88.1875 399.227 90.5312C402.221 92.875 405.281 95.1536 408.406 97.3672C411.661 99.4505 415.177 101.404 418.953 103.227C421.427 105.57 422.664 108.044 422.664 110.648C422.664 112.862 421.883 114.685 420.32 116.117C418.888 117.419 417.13 118.07 415.047 118.07C413.484 118.07 411.661 117.615 409.578 116.703C407.495 115.792 405.346 114.685 403.133 113.383C400.919 111.951 398.641 110.453 396.297 108.891C394.083 107.328 392 105.896 390.047 104.594C386.661 102.38 383.536 100.102 380.672 97.7578C377.938 95.4141 375.464 93.1354 373.25 90.9219V95.0234C373.25 99.3203 373.12 103.747 372.859 108.305C372.729 112.732 372.729 117.289 372.859 121.977ZM373.445 62.0156C373.185 62.276 373.055 62.4062 373.055 62.4062C372.924 62.4062 373.25 62.276 374.031 62.0156C376.896 61.2344 380.411 60.4531 384.578 59.6719C388.875 58.7604 392.977 57.5234 396.883 55.9609C400.789 54.2682 404.109 52.0547 406.844 49.3203C409.708 46.4557 411.141 42.6146 411.141 37.7969C411.141 33.8906 410.359 30.8307 408.797 28.6172C407.365 26.4036 405.411 24.7109 402.938 23.5391C400.594 22.237 397.924 21.3255 394.93 20.8047C391.935 20.1536 388.94 19.5026 385.945 18.8516C384.253 18.4609 382.365 18.1354 380.281 17.875C378.198 17.4844 376.44 17.2891 375.008 17.2891C374.487 17.2891 374.096 18.1354 373.836 19.8281C373.576 21.3906 373.38 23.2786 373.25 25.4922C373.25 27.7057 373.25 29.9193 373.25 32.1328C373.25 34.2161 373.25 35.7786 373.25 36.8203C373.25 41.638 373.25 46.1953 373.25 50.4922C373.38 54.7891 373.445 58.6302 373.445 62.0156ZM467.781 83.8906C467.13 83.7604 466.544 83.6953 466.023 83.6953C465.763 83.6953 465.112 84.6719 464.07 86.625C463.029 88.4479 461.792 90.5964 460.359 93.0703C459.057 95.4141 457.755 97.8229 456.453 100.297C455.151 102.641 454.174 104.333 453.523 105.375C451.44 107.849 449.096 109.086 446.492 109.086C444.539 109.086 442.846 108.435 441.414 107.133C439.982 105.701 439.266 103.682 439.266 101.078C439.266 100.036 439.331 99.1901 439.461 98.5391C443.758 90.987 447.859 83.5651 451.766 76.2734C455.672 68.9818 459.708 61.7552 463.875 54.5938C468.172 47.4323 472.664 40.4661 477.352 33.6953C482.039 26.7943 487.312 20.0885 493.172 13.5781C494.083 12.5365 495.06 11.8854 496.102 11.625C497.143 11.2344 498.12 10.974 499.031 10.8438C500.984 10.8438 502.612 11.5599 503.914 12.9922C505.346 14.4245 506.193 16.1823 506.453 18.2656C506.062 19.6979 505.607 20.6745 505.086 21.1953L506.648 20.4141C508.341 20.4141 510.099 20.8698 511.922 21.7812C513.875 22.6927 515.242 24.4505 516.023 27.0547C517.065 34.3464 518.302 41.4427 519.734 48.3438C521.167 55.1146 522.534 61.9505 523.836 68.8516C525.268 75.6224 526.505 82.4583 527.547 89.3594C528.719 96.2604 529.435 103.422 529.695 110.844C529.695 113.448 528.914 115.466 527.352 116.898C525.789 118.201 524.096 118.852 522.273 118.852C520.32 118.852 518.432 118.266 516.609 117.094C514.917 115.922 513.94 113.904 513.68 111.039C513.419 101.924 512.638 93.3307 511.336 85.2578C511.076 85.5182 510.359 85.7135 509.188 85.8438C502.156 85.8438 495.125 85.5182 488.094 84.8672C481.193 84.2161 474.422 83.8906 467.781 83.8906ZM474.617 68.2656C479.305 68.526 484.773 68.8516 491.023 69.2422C497.273 69.6328 503.003 69.8281 508.211 69.8281H508.406L508.211 68.8516C507.82 67.5495 507.365 65.6615 506.844 63.1875C506.323 60.7135 505.737 58.0443 505.086 55.1797C504.565 52.3151 503.979 49.3854 503.328 46.3906C502.807 43.2656 502.286 40.4661 501.766 37.9922C501.245 35.5182 500.789 33.5 500.398 31.9375C500.138 30.375 500.008 29.5938 500.008 29.5938C498.836 30.6354 497.208 32.5234 495.125 35.2578C493.302 37.6016 490.958 41.0521 488.094 45.6094C485.229 50.0365 481.648 56.0911 477.352 63.7734L474.617 68.2656ZM590.633 95.8047C590.633 94.6328 590.958 93.0052 591.609 90.9219C592.391 88.8385 593.237 86.625 594.148 84.2812C595.19 81.9375 596.167 79.6589 597.078 77.4453C598.12 75.1016 598.966 73.1484 599.617 71.5859C603.003 62.9922 606.518 54.2682 610.164 45.4141C613.81 36.5599 616.414 27.6406 617.977 18.6562C618.497 15.6615 619.669 13.7083 621.492 12.7969C623.315 11.7552 625.203 11.2344 627.156 11.2344C629.109 11.4948 630.737 12.4714 632.039 14.1641C633.341 15.8568 633.992 18.0052 633.992 20.6094C632.56 27.5104 630.737 34.151 628.523 40.5312C626.44 46.9115 624.096 53.2266 621.492 59.4766C619.018 65.7266 616.544 71.9766 614.07 78.2266C611.596 84.4766 609.383 90.7917 607.43 97.1719C607.039 98.3438 606.323 100.427 605.281 103.422C604.37 106.286 603.198 109.281 601.766 112.406C600.333 115.401 598.641 118.07 596.688 120.414C594.865 122.628 592.846 123.734 590.633 123.734C588.419 123.604 586.727 123.148 585.555 122.367C584.513 121.716 583.732 120.935 583.211 120.023C582.82 119.112 582.43 118.135 582.039 117.094C581.779 115.922 581.323 114.88 580.672 113.969C577.677 105.245 574.487 97.1068 571.102 89.5547C567.716 81.8724 564.396 74.3854 561.141 67.0938C558.016 59.6719 555.086 52.25 552.352 44.8281C549.617 37.276 547.404 29.2031 545.711 20.6094C545.581 20.349 545.516 19.8932 545.516 19.2422C545.516 17.0286 546.232 15.0755 547.664 13.3828C549.227 11.5599 551.049 10.6484 553.133 10.6484C554.826 10.6484 556.453 11.1693 558.016 12.2109C559.578 13.2526 560.685 15.0755 561.336 17.6797C562.378 22.3672 563.81 27.4453 565.633 32.9141C567.456 38.3828 569.409 43.9167 571.492 49.5156C573.706 55.1146 575.919 60.5833 578.133 65.9219C580.346 71.1302 582.365 75.8177 584.188 79.9844C586.01 84.151 587.508 87.6667 588.68 90.5312C589.852 93.3958 590.503 95.1536 590.633 95.8047ZM658.797 120.023C657.625 118.461 656.648 116.573 655.867 114.359C655.216 112.146 654.695 109.802 654.305 107.328C653.914 104.854 653.589 102.315 653.328 99.7109C653.198 97.1068 653.068 94.6328 652.938 92.2891L651.766 68.8516C651.375 65.0755 651.049 62.2109 650.789 60.2578C650.659 58.3047 650.464 56.3516 650.203 54.3984C650.073 52.3151 649.943 49.8411 649.812 46.9766C649.812 43.9818 649.812 39.6198 649.812 33.8906C649.812 31.9375 649.747 30.0495 649.617 28.2266C649.617 26.4036 649.617 24.5807 649.617 22.7578C649.617 18.0703 650.789 14.8802 653.133 13.1875C655.607 11.3646 658.732 10.4531 662.508 10.4531C664.721 10.4531 667.065 10.5833 669.539 10.8438C672.013 10.974 674.487 11.0391 676.961 11.0391C681.518 11.0391 686.01 10.4531 690.438 9.28125C694.865 7.97917 699.161 6.9375 703.328 6.15625C705.932 6.15625 708.146 6.8724 709.969 8.30469C711.792 9.60677 712.703 11.2344 712.703 13.1875C712.703 15.0104 712.117 16.8333 710.945 18.6562C709.773 20.349 707.885 21.4557 705.281 21.9766C700.203 23.0182 694.995 24.1901 689.656 25.4922C684.318 26.7943 678.914 27.4453 673.445 27.4453C672.013 27.4453 670.581 27.4453 669.148 27.4453C667.716 27.4453 666.479 27.3151 665.438 27.0547C665.568 32.0026 665.698 36.7552 665.828 41.3125C665.958 45.8698 666.154 50.2969 666.414 54.5938H666.609C676.505 53.5521 685.815 52.9661 694.539 52.8359C703.263 52.5755 712.508 52.4453 722.273 52.4453C727.091 53.7474 729.5 56.4167 729.5 60.4531C729.5 62.276 728.784 63.9688 727.352 65.5312C726.049 66.9635 724.227 67.875 721.883 68.2656C720.841 68.2656 718.758 68.2656 715.633 68.2656C712.638 68.2656 709.122 68.3307 705.086 68.4609C701.049 68.4609 696.818 68.526 692.391 68.6562C687.964 68.6562 683.862 68.7865 680.086 69.0469C676.44 69.1771 673.38 69.3724 670.906 69.6328C668.562 69.8932 667.391 70.2188 667.391 70.6094C667.391 76.4688 667.716 82.3281 668.367 88.1875C669.148 93.9167 669.799 99.5807 670.32 105.18C673.836 103.878 677.677 102.771 681.844 101.859C686.01 100.818 690.307 100.036 694.734 99.5156C699.292 98.9948 703.914 98.6042 708.602 98.3438C713.289 98.0833 717.846 97.9531 722.273 97.9531C724.878 98.9948 726.701 100.232 727.742 101.664C728.914 102.966 729.5 104.464 729.5 106.156C729.5 107.979 728.784 109.672 727.352 111.234C726.049 112.667 724.227 113.578 721.883 113.969C715.893 113.969 709.643 114.424 703.133 115.336C696.622 116.117 690.568 117.094 684.969 118.266C679.5 119.307 674.812 120.219 670.906 121C667 121.911 664.656 122.367 663.875 122.367C663.224 122.367 662.443 122.107 661.531 121.586C660.75 121.195 659.839 120.674 658.797 120.023ZM742.586 12.9922C743.107 10.5182 744.018 8.69531 745.32 7.52344C746.753 6.35156 748.445 5.63542 750.398 5.375C753.914 5.375 756.518 7.71875 758.211 12.4062C759.904 28.8125 761.271 45.0885 762.312 61.2344C763.484 77.3802 765.503 92.9401 768.367 107.914C772.924 107.914 777.547 107.979 782.234 108.109C787.052 108.109 791.935 108.109 796.883 108.109C805.216 108.109 813.615 107.914 822.078 107.523C824.682 108.305 826.57 109.477 827.742 111.039C828.914 112.471 829.5 114.034 829.5 115.727C829.24 117.68 828.523 119.372 827.352 120.805C826.18 122.237 824.357 123.148 821.883 123.539C815.242 123.799 808.536 124.255 801.766 124.906C795.125 125.688 788.484 126.078 781.844 126.078C779.63 126.078 777.091 126.013 774.227 125.883C771.492 125.753 768.823 125.427 766.219 124.906C763.615 124.385 761.206 123.604 758.992 122.562C756.779 121.521 755.151 120.089 754.109 118.266C752.417 111.104 751.18 104.138 750.398 97.3672C749.617 90.4661 748.901 83.5 748.25 76.4688C747.078 65.9219 746.102 55.375 745.32 44.8281C744.539 34.2812 743.628 23.6693 742.586 12.9922Z" fill="#02F8E9"/>
</svg>
